<?xml version="1.0" encoding="UTF-8" standalone="no"?>
<!-- Created with Inkscape (http://www.inkscape.org/) -->

<svg
   xmlns:dc="http://purl.org/dc/elements/1.1/"
   xmlns:cc="http://creativecommons.org/ns#"
   xmlns:rdf="http://www.w3.org/1999/02/22-rdf-syntax-ns#"
   xmlns:svg="http://www.w3.org/2000/svg"
   xmlns="http://www.w3.org/2000/svg"
   xmlns:sodipodi="http://sodipodi.sourceforge.net/DTD/sodipodi-0.dtd"
   xmlns:inkscape="http://www.inkscape.org/namespaces/inkscape"
   width="84"
   height="84"
   viewBox="0 0 22.224999 22.225001"
   version="1.1"
   id="svg3733"
   sodipodi:docname="logo_pvb3.svg"
   inkscape:version="0.92.3 (2405546, 2018-03-11)">
  <defs
     id="defs3727" />
  <sodipodi:namedview
     id="base"
     pagecolor="#ffffff"
     bordercolor="#666666"
     borderopacity="1.0"
     inkscape:pageopacity="0.0"
     inkscape:pageshadow="2"
     inkscape:zoom="2.8"
     inkscape:cx="90.376014"
     inkscape:cy="39.493229"
     inkscape:document-units="mm"
     inkscape:current-layer="layer2"
     showgrid="false"
     units="px"
     inkscape:snap-page="true"
     inkscape:window-width="1440"
     inkscape:window-height="838"
     inkscape:window-x="-8"
     inkscape:window-y="-8"
     inkscape:window-maximized="1" />
  <metadata
     id="metadata3730">
    <rdf:RDF>
      <cc:Work
         rdf:about="">
        <dc:format>image/svg+xml</dc:format>
        <dc:type
           rdf:resource="http://purl.org/dc/dcmitype/StillImage" />
        <dc:title></dc:title>
      </cc:Work>
    </rdf:RDF>
  </metadata>
  <g
     inkscape:label="Layer 1"
     inkscape:groupmode="layer"
     id="layer1"
     transform="translate(0,-274.77498)"
     style="display:inline" />
  <g
     inkscape:groupmode="layer"
     id="layer2"
     inkscape:label="заливка"
     style="display:inline">
    <path
       style="display:inline;fill:#000000;stroke-width:0.03704166"
       d="M 2.9633361,11.72304 V 8.3330898 l 0.916782,0.01 0.916781,0.01 0.0095,3.3800502 0.0095,3.38005 h -0.926236 -0.926237 z"
       id="path3766-0"
       inkscape:connector-curvature="0" />
    <path
       style="display:inline;fill:#000000;stroke-width:0.03704166"
       d="m 10.173839,15.08522 c -0.01463,-0.0239 -0.3635479,-1.12702 -0.6356189,-2.00951 -0.08994,-0.29173 -0.326097,-1.04785 -1.034898,-3.3135392 -0.23553,-0.75287 -0.428236,-1.38212 -0.428236,-1.39833 0,-0.0162 0.432677,-0.0295 0.961503,-0.0295 h 0.961503 l 0.2957379,0.916779 c 0.284582,0.8822002 1.622184,5.0408612 1.799039,5.5932902 l 0.08597,0.26855 h -0.994004 c -0.546703,0 -1.001653,-0.0125 -1.011,-0.0278 z"
       id="path3764-2"
       inkscape:connector-curvature="0" />
    <path
       style="display:inline;fill:#000000;stroke-width:0.03704166"
       d="M 15.29821,11.72304 V 8.3330898 l 0.916782,0.01 0.916782,0.01 0.0095,3.3800502 0.0095,3.38005 h -0.926236 -0.926237 z"
       id="path3762-7"
       inkscape:connector-curvature="0" />
    <path
       style="display:inline;fill:#000000;stroke-width:0.03704166"
       d="M 17.891128,11.72716 V 8.3343698 l 0.06482,6.88e-4 c 1.597629,0.0159 2.4813,2.0270502 1.430185,3.2550402 l -0.129206,0.15095 0.12729,0.13106 c 1.059674,1.09111 0.287763,3.00598 -1.298624,3.22147 l -0.194468,0.0264 V 11.7272 Z"
       id="path3760-7"
       inkscape:connector-curvature="0" />
    <path
       style="display:inline;fill:#000000;stroke-width:0.03704166"
       d="m 11.971164,12.26927 c -0.608578,-1.90104 -0.797126,-2.4870392 -1.033658,-3.2125892 -0.09298,-0.28522 -0.176883,-0.56442 -0.186445,-0.62044 l -0.01738,-0.101871 h 1.763683 1.763682 v 0.0517 c 0,0.0577 -0.08442,0.344771 -0.295298,1.00403 -0.0782,0.24448 -0.209355,0.6611902 -0.291449,0.9260402 -0.08209,0.26485 -0.243249,0.78158 -0.358119,1.14829 -0.352372,1.12492 -0.691431,2.21628 -0.727876,2.34289 -0.05797,0.20137 -0.06955,0.17249 -0.617137,-1.53801 z"
       id="path3758-3"
       inkscape:connector-curvature="0" />
    <path
       style="display:inline;fill:#000000;stroke-width:0.03704166"
       d="m 5.5192111,10.33346 0.0017,-1.9974402 0.196443,0.009 c 0.861376,0.0494 1.817947,0.87814 1.794351,2.0053402 -0.01979,0.94531 -0.766593,1.89044 -1.8165,1.94675 l -0.175948,4.23e-4 z"
       id="path3756-5"
       inkscape:connector-curvature="0"
       sodipodi:nodetypes="cccsccc" />
    <rect
       id="rect3730-36"
       width="1.5635175"
       height="1.5635175"
       x="-10.895123"
       y="2.1907382"
       style="display:inline;stroke-width:0.03447338"
       transform="matrix(-0.68998195,-0.72382658,0.68998195,-0.72382658,0,0)" />
    <rect
       id="rect3730-3-0"
       width="1.5635175"
       height="1.5635175"
       x="-12.458645"
       y="3.7542453"
       style="display:inline;stroke-width:0.03447338"
       transform="matrix(-0.68998195,-0.72382658,0.68998195,-0.72382658,0,0)" />
    <rect
       id="rect3730-2-9"
       width="1.5635175"
       height="1.5635175"
       x="-14.022152"
       y="5.3177676"
       style="display:inline;stroke-width:0.03447338"
       transform="matrix(-0.68998195,-0.72382658,0.68998195,-0.72382658,0,0)" />
  </g>
</svg>
